{
  "accessors": [
    {
      "bufferView": 0,
      "componentType": 5126,
      "count": 36,
      "type": "VEC3",
      "max": [
        0.86602497100830078,
        -0.5,
        1.0
      ],
      "min": [
        -0.86602497100830078,
        -1.0,
        -1.0
      ]
    },
    {
      "bufferView": 1,
      "componentType": 5126,
      "count": 36,
      "type": "VEC3",
      "max": [
        1.0,
        1.0,
        0.866019070148468
      ],
      "min": [
        -1.0,
        -1.0,
        -0.866019070148468
      ]
    },
    {
      "bufferView": 2,
      "componentType": 5126,
      "count": 36,
      "type": "VEC4",
      "max": [
        1.0,
        0.0,
        0.0,
        1.0
      ],
      "min": [
        1.0,
        0.0,
        0.0,
        1.0
      ]
    },
    {
      "bufferView": 3,
      "componentType": 5126,
      "count": 36,
      "type": "VEC2",
      "max": [
        0.12489999830722809,
        0.62400001287460327
      ],
      "min": [
        0.12489999830722809,
        0.62400001287460327
      ]
    },
    {
      "bufferView": 4,
      "componentType": 5121,
      "count": 60,
      "type": "SCALAR",
      "max": [
        35.0
      ],
      "min": [
        0.0
      ]
    }
  ],
  "asset": {
    "version": "2.0"
  },
  "buffers": [
    {
      "uri": "Tile_Water_01_Coast_Outer.bin",
      "byteLength": 1788
    }
  ],
  "bufferViews": [
    {
      "buffer": 0,
      "byteLength": 432
    },
    {
      "buffer": 0,
      "byteOffset": 432,
      "byteLength": 432
    },
    {
      "buffer": 0,
      "byteOffset": 864,
      "byteLength": 576
    },
    {
      "buffer": 0,
      "byteOffset": 1440,
      "byteLength": 288
    },
    {
      "buffer": 0,
      "byteOffset": 1728,
      "byteLength": 60
    }
  ],
  "images": [
    {
      "uri": "palette2.png",
      "name": "palette2"
    }
  ],
  "materials": [
    {
      "pbrMetallicRoughness": {
        "baseColorTexture": {
          "index": 0
        },
        "metallicFactor": 0.0
      },
      "name": "palette2"
    }
  ],
  "meshes": [
    {
      "primitives": [
        {
          "attributes": {
            "POSITION": 0,
            "NORMAL": 1,
            "TANGENT": 2,
            "TEXCOORD_0": 3
          },
          "indices": 4,
          "material": 0
        }
      ],
      "name": "Tile_Water_01_Coast_Outer"
    }
  ],
  "nodes": [
    {
      "mesh": 0,
      "rotation": [
        0.0,
        0.0,
        0.0,
        -1.0
      ],
      "translation": [
        0.0,
        1.0,
        0.0
      ],
      "name": "Tile_Water_01_Coast_Outer"
    }
  ],
  "samplers": [
    {
      "magFilter": 9728,
      "minFilter": 9984
    }
  ],
  "scene": 0,
  "scenes": [
    {
      "nodes": [
        0
      ],
      "name": "Tile_Water_01_Coast_Outer"
    }
  ],
  "textures": [
    {
      "sampler": 0,
      "source": 0,
      "name": "palette2"
    }
  ]
}