{
  "accessors": [
    {
      "bufferView": 0,
      "componentType": 5126,
      "count": 36,
      "type": "VEC3",
      "max": [
        0.86602497100830078,
        0.0,
        1.0
      ],
      "min": [
        -0.86602497100830078,
        -1.0,
        -1.0
      ]
    },
    {
      "bufferView": 1,
      "componentType": 5126,
      "count": 36,
      "type": "VEC3",
      "max": [
        1.0,
        1.0,
        0.866019070148468
      ],
      "min": [
        -1.0,
        -1.0,
        -0.866019070148468
      ]
    },
    {
      "bufferView": 2,
      "componentType": 5126,
      "count": 36,
      "type": "VEC4",
      "max": [
        1.0,
        0.0,
        0.0,
        1.0
      ],
      "min": [
        1.0,
        0.0,
        0.0,
        1.0
      ]
    },
    {
      "bufferView": 3,
      "componentType": 5126,
      "count": 36,
      "type": "VEC2",
      "max": [
        0.125,
        0.375
      ],
      "min": [
        0.125,
        0.375
      ]
    },
    {
      "bufferView": 4,
      "componentType": 5121,
      "count": 60,
      "type": "SCALAR",
      "max": [
        35.0
      ],
      "min": [
        0.0
      ]
    },
    {
      "bufferView": 5,
      "componentType": 5126,
      "count": 352,
      "type": "VEC3",
      "max": [
        0.94696897268295288,
        1.9844870567321777,
        1.0130170583724976
      ],
      "min": [
        -0.84008997678756714,
        -0.00043300000834278762,
        -0.81331300735473633
      ]
    },
    {
      "bufferView": 6,
      "componentType": 5126,
      "count": 352,
      "type": "VEC3",
      "max": [
        1.0,
        0.3441106379032135,
        1.0
      ],
      "min": [
        -1.0,
        -1.0,
        -1.0
      ]
    },
    {
      "bufferView": 7,
      "componentType": 5126,
      "count": 352,
      "type": "VEC4",
      "max": [
        1.0,
        0.0,
        0.0,
        1.0
      ],
      "min": [
        1.0,
        0.0,
        0.0,
        1.0
      ]
    },
    {
      "bufferView": 8,
      "componentType": 5126,
      "count": 352,
      "type": "VEC2",
      "max": [
        0.125,
        0.375
      ],
      "min": [
        0.125,
        0.125
      ]
    },
    {
      "bufferView": 9,
      "componentType": 5123,
      "count": 462,
      "type": "SCALAR",
      "max": [
        351.0
      ],
      "min": [
        0.0
      ]
    }
  ],
  "asset": {
    "version": "2.0"
  },
  "buffers": [
    {
      "uri": "Tile_Grass_Woods_01.bin",
      "byteLength": 19608
    }
  ],
  "bufferViews": [
    {
      "buffer": 0,
      "byteLength": 432
    },
    {
      "buffer": 0,
      "byteOffset": 432,
      "byteLength": 432
    },
    {
      "buffer": 0,
      "byteOffset": 864,
      "byteLength": 576
    },
    {
      "buffer": 0,
      "byteOffset": 1440,
      "byteLength": 288
    },
    {
      "buffer": 0,
      "byteOffset": 1728,
      "byteLength": 60
    },
    {
      "buffer": 0,
      "byteOffset": 1788,
      "byteLength": 4224
    },
    {
      "buffer": 0,
      "byteOffset": 6012,
      "byteLength": 4224
    },
    {
      "buffer": 0,
      "byteOffset": 10236,
      "byteLength": 5632
    },
    {
      "buffer": 0,
      "byteOffset": 15868,
      "byteLength": 2816
    },
    {
      "buffer": 0,
      "byteOffset": 18684,
      "byteLength": 924
    }
  ],
  "images": [
    {
      "uri": "palette1.png",
      "name": "palette1"
    },
    {
      "uri": "palette3.png",
      "name": "palette3"
    }
  ],
  "materials": [
    {
      "pbrMetallicRoughness": {
        "baseColorTexture": {
          "index": 0
        },
        "metallicFactor": 0.0
      },
      "name": "palette1"
    },
    {
      "pbrMetallicRoughness": {
        "baseColorTexture": {
          "index": 1
        },
        "metallicFactor": 0.0
      },
      "name": "palette3"
    }
  ],
  "meshes": [
    {
      "primitives": [
        {
          "attributes": {
            "POSITION": 0,
            "NORMAL": 1,
            "TANGENT": 2,
            "TEXCOORD_0": 3
          },
          "indices": 4,
          "material": 0
        }
      ],
      "name": "Tile_Grass_Woods_01"
    },
    {
      "primitives": [
        {
          "attributes": {
            "POSITION": 5,
            "NORMAL": 6,
            "TANGENT": 7,
            "TEXCOORD_0": 8
          },
          "indices": 9,
          "material": 1
        }
      ],
      "name": "decorator_natural_pineForest"
    }
  ],
  "nodes": [
    {
      "children": [
        1
      ],
      "mesh": 0,
      "rotation": [
        0.0,
        0.0,
        0.0,
        -1.0
      ],
      "translation": [
        0.0,
        1.0,
        0.0
      ],
      "name": "Tile_Grass_Woods_01"
    },
    {
      "mesh": 1,
      "rotation": [
        0.0,
        0.0,
        0.0,
        -1.0
      ],
      "name": "decorator_natural_pineForest"
    }
  ],
  "samplers": [
    {
      "magFilter": 9728,
      "minFilter": 9984
    }
  ],
  "scene": 0,
  "scenes": [
    {
      "nodes": [
        0
      ],
      "name": "Tile_Grass_Woods_01"
    }
  ],
  "textures": [
    {
      "sampler": 0,
      "source": 0,
      "name": "palette1"
    },
    {
      "sampler": 0,
      "source": 1,
      "name": "palette3"
    }
  ]
}