{
  "accessors": [
    {
      "bufferView": 0,
      "componentType": 5126,
      "count": 36,
      "type": "VEC3",
      "max": [
        0.86602497100830078,
        0.0,
        1.0
      ],
      "min": [
        -0.86602497100830078,
        -1.0,
        -1.0
      ]
    },
    {
      "bufferView": 1,
      "componentType": 5126,
      "count": 36,
      "type": "VEC3",
      "max": [
        1.0,
        1.0,
        0.866019070148468
      ],
      "min": [
        -1.0,
        -1.0,
        -0.866019070148468
      ]
    },
    {
      "bufferView": 2,
      "componentType": 5126,
      "count": 36,
      "type": "VEC4",
      "max": [
        1.0,
        0.0,
        0.0,
        1.0
      ],
      "min": [
        1.0,
        0.0,
        0.0,
        1.0
      ]
    },
    {
      "bufferView": 3,
      "componentType": 5126,
      "count": 36,
      "type": "VEC2",
      "max": [
        0.125,
        0.375
      ],
      "min": [
        0.125,
        0.375
      ]
    },
    {
      "bufferView": 4,
      "componentType": 5121,
      "count": 60,
      "type": "SCALAR",
      "max": [
        35.0
      ],
      "min": [
        0.0
      ]
    },
    {
      "bufferView": 5,
      "componentType": 5126,
      "count": 886,
      "type": "VEC3",
      "max": [
        6.77471923828125,
        20.296159744262695,
        11.935211181640625
      ],
      "min": [
        -6.774688720703125,
        0.0,
        -11.935211181640625
      ]
    },
    {
      "bufferView": 6,
      "componentType": 5126,
      "count": 886,
      "type": "VEC3",
      "max": [
        1.0,
        1.0,
        1.0
      ],
      "min": [
        -1.0,
        -1.0,
        -1.0
      ]
    },
    {
      "bufferView": 7,
      "componentType": 5126,
      "count": 886,
      "type": "VEC4",
      "max": [
        1.0,
        1.0,
        1.0,
        1.0
      ],
      "min": [
        -1.5892979718046263E-05,
        -4.2383780964883044E-06,
        0.0,
        -1.0
      ]
    },
    {
      "bufferView": 8,
      "componentType": 5126,
      "count": 886,
      "type": "VEC2",
      "max": [
        0.89451789855957031,
        0.99186956882476807
      ],
      "min": [
        0.53903204202651978,
        0.95984536409378052
      ]
    },
    {
      "bufferView": 9,
      "componentType": 5123,
      "count": 1506,
      "type": "SCALAR",
      "max": [
        885.0
      ],
      "min": [
        0.0
      ]
    },
    {
      "bufferView": 10,
      "componentType": 5126,
      "count": 298,
      "type": "VEC3",
      "max": [
        0.61852198839187622,
        0.780834972858429,
        0.38483399152755737
      ],
      "min": [
        -0.61852198839187622,
        -0.0026279999874532223,
        -0.38483399152755737
      ]
    },
    {
      "bufferView": 11,
      "componentType": 5126,
      "count": 298,
      "type": "VEC3",
      "max": [
        1.0,
        1.0,
        1.0
      ],
      "min": [
        -1.0,
        -1.0,
        -1.0
      ]
    },
    {
      "bufferView": 12,
      "componentType": 5126,
      "count": 298,
      "type": "VEC4",
      "max": [
        1.0,
        0.0,
        0.0,
        1.0
      ],
      "min": [
        1.0,
        0.0,
        0.0,
        1.0
      ]
    },
    {
      "bufferView": 13,
      "componentType": 5126,
      "count": 298,
      "type": "VEC2",
      "max": [
        0.89440000057220459,
        0.38590002059936523
      ],
      "min": [
        0.13789999485015869,
        0.37660002708435059
      ]
    },
    {
      "bufferView": 14,
      "componentType": 5123,
      "count": 696,
      "type": "SCALAR",
      "max": [
        297.0
      ],
      "min": [
        0.0
      ]
    },
    {
      "bufferView": 15,
      "componentType": 5126,
      "count": 1276,
      "type": "VEC3",
      "max": [
        0.77131897211074829,
        1.2103259563446045,
        0.71150201559066772
      ],
      "min": [
        -0.75758099555969238,
        0.0,
        -0.58191698789596558
      ]
    },
    {
      "bufferView": 16,
      "componentType": 5126,
      "count": 1276,
      "type": "VEC3",
      "max": [
        0.979713499546051,
        1.0,
        0.99982315301895142
      ],
      "min": [
        -0.9768528938293457,
        -1.0,
        -0.98374277353286743
      ]
    },
    {
      "bufferView": 17,
      "componentType": 5126,
      "count": 1276,
      "type": "VEC4",
      "max": [
        1.0,
        0.0,
        0.0,
        1.0
      ],
      "min": [
        1.0,
        0.0,
        0.0,
        1.0
      ]
    },
    {
      "bufferView": 18,
      "componentType": 5126,
      "count": 1276,
      "type": "VEC2",
      "max": [
        0.375,
        0.375
      ],
      "min": [
        0.125,
        0.125
      ]
    },
    {
      "bufferView": 19,
      "componentType": 5123,
      "count": 1584,
      "type": "SCALAR",
      "max": [
        1275.0
      ],
      "min": [
        0.0
      ]
    },
    {
      "bufferView": 20,
      "componentType": 5126,
      "count": 552,
      "type": "VEC3",
      "max": [
        2.165191650390625,
        9.8247222900390625,
        3.49932861328125
      ],
      "min": [
        -2.1651611328125,
        0.0,
        -3.4993896484375
      ]
    },
    {
      "bufferView": 21,
      "componentType": 5126,
      "count": 552,
      "type": "VEC3",
      "max": [
        1.0,
        1.0,
        1.0
      ],
      "min": [
        -1.0,
        -1.0,
        -1.0
      ]
    },
    {
      "bufferView": 22,
      "componentType": 5126,
      "count": 552,
      "type": "VEC4",
      "max": [
        1.0,
        1.0,
        1.0,
        1.0
      ],
      "min": [
        -1.8230875866720453E-05,
        -1.832058282857929E-09,
        -1.2167865861556493E-05,
        -1.0
      ]
    },
    {
      "bufferView": 23,
      "componentType": 5126,
      "count": 552,
      "type": "VEC2",
      "max": [
        0.82778298854827881,
        0.99295032024383545
      ],
      "min": [
        0.6686016321182251,
        0.99041414260864258
      ]
    },
    {
      "bufferView": 24,
      "componentType": 5123,
      "count": 984,
      "type": "SCALAR",
      "max": [
        551.0
      ],
      "min": [
        0.0
      ]
    },
    {
      "bufferView": 25,
      "componentType": 5126,
      "count": 64,
      "type": "VEC3",
      "max": [
        0.2027599960565567,
        0.95679599046707153,
        -0.095758996903896332
      ],
      "min": [
        -0.2027599960565567,
        0.53545498847961426,
        -0.643280029296875
      ]
    },
    {
      "bufferView": 26,
      "componentType": 5126,
      "count": 64,
      "type": "VEC3",
      "max": [
        1.0,
        0.99997830390930176,
        1.0
      ],
      "min": [
        -1.0,
        -0.999992847442627,
        -0.975993812084198
      ]
    },
    {
      "bufferView": 27,
      "componentType": 5126,
      "count": 64,
      "type": "VEC4",
      "max": [
        1.0,
        0.0,
        0.0,
        1.0
      ],
      "min": [
        1.0,
        0.0,
        0.0,
        1.0
      ]
    },
    {
      "bufferView": 28,
      "componentType": 5126,
      "count": 64,
      "type": "VEC2",
      "max": [
        0.85439997911453247,
        0.37199997901916504
      ],
      "min": [
        0.1160999983549118,
        0.10140001773834229
      ]
    },
    {
      "bufferView": 29,
      "componentType": 5121,
      "count": 96,
      "type": "SCALAR",
      "max": [
        63.0
      ],
      "min": [
        0.0
      ]
    },
    {
      "bufferView": 30,
      "componentType": 5126,
      "count": 352,
      "type": "VEC3",
      "max": [
        0.94696897268295288,
        1.9844870567321777,
        1.0130170583724976
      ],
      "min": [
        -0.84008997678756714,
        -0.00043300000834278762,
        -0.81331300735473633
      ]
    },
    {
      "bufferView": 31,
      "componentType": 5126,
      "count": 352,
      "type": "VEC3",
      "max": [
        1.0,
        0.3441106379032135,
        1.0
      ],
      "min": [
        -1.0,
        -1.0,
        -1.0
      ]
    },
    {
      "bufferView": 32,
      "componentType": 5126,
      "count": 352,
      "type": "VEC4",
      "max": [
        1.0,
        0.0,
        0.0,
        1.0
      ],
      "min": [
        1.0,
        0.0,
        0.0,
        1.0
      ]
    },
    {
      "bufferView": 33,
      "componentType": 5126,
      "count": 352,
      "type": "VEC2",
      "max": [
        0.125,
        0.375
      ],
      "min": [
        0.125,
        0.125
      ]
    },
    {
      "bufferView": 34,
      "componentType": 5123,
      "count": 462,
      "type": "SCALAR",
      "max": [
        351.0
      ],
      "min": [
        0.0
      ]
    },
    {
      "bufferView": 35,
      "componentType": 5126,
      "count": 1525,
      "type": "VEC3",
      "max": [
        11.935211181640625,
        35.580623626708984,
        6.7747077941894531
      ],
      "min": [
        -11.935211181640625,
        0.0,
        -6.7747077941894531
      ]
    },
    {
      "bufferView": 36,
      "componentType": 5126,
      "count": 1525,
      "type": "VEC3",
      "max": [
        1.0,
        1.0,
        1.0
      ],
      "min": [
        -1.0,
        -1.0,
        -1.0
      ]
    },
    {
      "bufferView": 37,
      "componentType": 5126,
      "count": 1525,
      "type": "VEC4",
      "max": [
        1.0,
        1.0,
        1.0,
        1.0
      ],
      "min": [
        0.0,
        0.0,
        0.0,
        -1.0
      ]
    },
    {
      "bufferView": 38,
      "componentType": 5126,
      "count": 1525,
      "type": "VEC2",
      "max": [
        0.89451789855957031,
        0.99186956882476807
      ],
      "min": [
        0.20144222676753998,
        0.91096878051757813
      ]
    },
    {
      "bufferView": 39,
      "componentType": 5123,
      "count": 2472,
      "type": "SCALAR",
      "max": [
        1524.0
      ],
      "min": [
        0.0
      ]
    }
  ],
  "asset": {
    "version": "2.0"
  },
  "buffers": [
    {
      "uri": "Tile_City_Townhall.bin",
      "byteLength": 255036
    }
  ],
  "bufferViews": [
    {
      "buffer": 0,
      "byteLength": 432
    },
    {
      "buffer": 0,
      "byteOffset": 432,
      "byteLength": 432
    },
    {
      "buffer": 0,
      "byteOffset": 864,
      "byteLength": 576
    },
    {
      "buffer": 0,
      "byteOffset": 1440,
      "byteLength": 288
    },
    {
      "buffer": 0,
      "byteOffset": 1728,
      "byteLength": 60
    },
    {
      "buffer": 0,
      "byteOffset": 1788,
      "byteLength": 10632
    },
    {
      "buffer": 0,
      "byteOffset": 12420,
      "byteLength": 10632
    },
    {
      "buffer": 0,
      "byteOffset": 23052,
      "byteLength": 14176
    },
    {
      "buffer": 0,
      "byteOffset": 37228,
      "byteLength": 7088
    },
    {
      "buffer": 0,
      "byteOffset": 44316,
      "byteLength": 3012
    },
    {
      "buffer": 0,
      "byteOffset": 47328,
      "byteLength": 3576
    },
    {
      "buffer": 0,
      "byteOffset": 50904,
      "byteLength": 3576
    },
    {
      "buffer": 0,
      "byteOffset": 54480,
      "byteLength": 4768
    },
    {
      "buffer": 0,
      "byteOffset": 59248,
      "byteLength": 2384
    },
    {
      "buffer": 0,
      "byteOffset": 61632,
      "byteLength": 1392
    },
    {
      "buffer": 0,
      "byteOffset": 63024,
      "byteLength": 15312
    },
    {
      "buffer": 0,
      "byteOffset": 78336,
      "byteLength": 15312
    },
    {
      "buffer": 0,
      "byteOffset": 93648,
      "byteLength": 20416
    },
    {
      "buffer": 0,
      "byteOffset": 114064,
      "byteLength": 10208
    },
    {
      "buffer": 0,
      "byteOffset": 124272,
      "byteLength": 3168
    },
    {
      "buffer": 0,
      "byteOffset": 127440,
      "byteLength": 6624
    },
    {
      "buffer": 0,
      "byteOffset": 134064,
      "byteLength": 6624
    },
    {
      "buffer": 0,
      "byteOffset": 140688,
      "byteLength": 8832
    },
    {
      "buffer": 0,
      "byteOffset": 149520,
      "byteLength": 4416
    },
    {
      "buffer": 0,
      "byteOffset": 153936,
      "byteLength": 1968
    },
    {
      "buffer": 0,
      "byteOffset": 155904,
      "byteLength": 768
    },
    {
      "buffer": 0,
      "byteOffset": 156672,
      "byteLength": 768
    },
    {
      "buffer": 0,
      "byteOffset": 157440,
      "byteLength": 1024
    },
    {
      "buffer": 0,
      "byteOffset": 158464,
      "byteLength": 512
    },
    {
      "buffer": 0,
      "byteOffset": 158976,
      "byteLength": 96
    },
    {
      "buffer": 0,
      "byteOffset": 159072,
      "byteLength": 4224
    },
    {
      "buffer": 0,
      "byteOffset": 163296,
      "byteLength": 4224
    },
    {
      "buffer": 0,
      "byteOffset": 167520,
      "byteLength": 5632
    },
    {
      "buffer": 0,
      "byteOffset": 173152,
      "byteLength": 2816
    },
    {
      "buffer": 0,
      "byteOffset": 175968,
      "byteLength": 924
    },
    {
      "buffer": 0,
      "byteOffset": 176892,
      "byteLength": 18300
    },
    {
      "buffer": 0,
      "byteOffset": 195192,
      "byteLength": 18300
    },
    {
      "buffer": 0,
      "byteOffset": 213492,
      "byteLength": 24400
    },
    {
      "buffer": 0,
      "byteOffset": 237892,
      "byteLength": 12200
    },
    {
      "buffer": 0,
      "byteOffset": 250092,
      "byteLength": 4944
    }
  ],
  "images": [
    {
      "uri": "palette1.png",
      "name": "palette1"
    },
    {
      "uri": "Medieval_Texture.png",
      "name": "Medieval_Texture"
    }
  ],
  "materials": [
    {
      "pbrMetallicRoughness": {
        "baseColorTexture": {
          "index": 0
        },
        "metallicFactor": 0.0
      },
      "name": "palette1"
    },
    {
      "pbrMetallicRoughness": {
        "baseColorTexture": {
          "index": 1
        },
        "metallicFactor": 0.0
      },
      "emissiveFactor": [
        0.0,
        0.0,
        0.0
      ],
      "name": "Medieval_Material"
    }
  ],
  "meshes": [
    {
      "primitives": [
        {
          "attributes": {
            "POSITION": 0,
            "NORMAL": 1,
            "TANGENT": 2,
            "TEXCOORD_0": 3
          },
          "indices": 4,
          "material": 0
        }
      ],
      "name": "Tile_City_Townhall"
    },
    {
      "primitives": [
        {
          "attributes": {
            "POSITION": 5,
            "NORMAL": 6,
            "TANGENT": 7,
            "TEXCOORD_0": 8
          },
          "indices": 9,
          "material": 1
        }
      ],
      "name": "SF_Bld_Castle_Keep_03"
    },
    {
      "primitives": [
        {
          "attributes": {
            "POSITION": 10,
            "NORMAL": 11,
            "TANGENT": 12,
            "TEXCOORD_0": 13
          },
          "indices": 14,
          "material": 0
        }
      ],
      "name": "decorator_building_barracks"
    },
    {
      "primitives": [
        {
          "attributes": {
            "POSITION": 15,
            "NORMAL": 16,
            "TANGENT": 17,
            "TEXCOORD_0": 18
          },
          "indices": 19,
          "material": 0
        }
      ],
      "name": "decorator_natural_orchard (1)"
    },
    {
      "primitives": [
        {
          "attributes": {
            "POSITION": 20,
            "NORMAL": 21,
            "TANGENT": 22,
            "TEXCOORD_0": 23
          },
          "indices": 24,
          "material": 1
        }
      ],
      "name": "SF_Bld_Undead_Crypt_02"
    },
    {
      "primitives": [
        {
          "attributes": {
            "POSITION": 25,
            "NORMAL": 26,
            "TANGENT": 27,
            "TEXCOORD_0": 28
          },
          "indices": 29,
          "material": 0
        }
      ],
      "name": "decorator_building_mountainMine (1)"
    },
    {
      "primitives": [
        {
          "attributes": {
            "POSITION": 30,
            "NORMAL": 31,
            "TANGENT": 32,
            "TEXCOORD_0": 33
          },
          "indices": 34,
          "material": 0
        }
      ],
      "name": "decorator_natural_pineForest"
    },
    {
      "primitives": [
        {
          "attributes": {
            "POSITION": 35,
            "NORMAL": 36,
            "TANGENT": 37,
            "TEXCOORD_0": 38
          },
          "indices": 39,
          "material": 1
        }
      ],
      "name": "SF_Bld_Castle_Keep_01"
    }
  ],
  "nodes": [
    {
      "children": [
        1,
        2,
        3,
        4,
        5,
        6,
        7,
        8,
        9,
        10,
        11,
        12,
        13,
        14,
        15,
        18,
        19,
        20
      ],
      "mesh": 0,
      "rotation": [
        0.0,
        0.0,
        0.0,
        -1.0
      ],
      "translation": [
        0.0,
        1.0,
        0.0
      ],
      "name": "Tile_City_Townhall"
    },
    {
      "mesh": 1,
      "rotation": [
        0.0,
        -0.939016163,
        0.0,
        -0.343873
      ],
      "scale": [
        0.02588384,
        0.02588384,
        0.02588384
      ],
      "translation": [
        -0.7389995,
        -0.031,
        -0.2539994
      ],
      "name": "SF_Bld_Castle_Keep_03"
    },
    {
      "mesh": 2,
      "rotation": [
        0.0,
        0.0,
        0.0,
        -1.0
      ],
      "scale": [
        0.52505,
        0.52505,
        0.52505
      ],
      "translation": [
        -0.055,
        -0.033,
        0.773
      ],
      "name": "decorator_building_barracks"
    },
    {
      "mesh": 2,
      "rotation": [
        0.0,
        0.359803766,
        0.0,
        -0.933028042
      ],
      "scale": [
        0.5250499,
        0.52505,
        0.5250499
      ],
      "translation": [
        -0.748,
        -0.031,
        0.429
      ],
      "name": "decorator_building_barracks (1)"
    },
    {
      "mesh": 3,
      "rotation": [
        0.0,
        0.0,
        0.0,
        -1.0
      ],
      "scale": [
        0.23019,
        0.23019,
        0.23019
      ],
      "translation": [
        0.081,
        0.0,
        0.415
      ],
      "name": "decorator_natural_orchard (1)"
    },
    {
      "mesh": 2,
      "rotation": [
        0.0,
        -0.046085,
        0.0,
        -0.998937547
      ],
      "scale": [
        0.309931755,
        0.309931755,
        0.309931755
      ],
      "translation": [
        -0.17,
        -0.018,
        0.385
      ],
      "name": "decorator_building_barracks (2)"
    },
    {
      "mesh": 4,
      "rotation": [
        0.0,
        -0.7888685,
        0.0,
        -0.614562035
      ],
      "scale": [
        0.100797519,
        0.100797512,
        0.100797519
      ],
      "translation": [
        -0.039,
        -0.01700002,
        -0.013
      ],
      "name": "SF_Bld_Undead_Crypt_02"
    },
    {
      "mesh": 2,
      "rotation": [
        0.0,
        0.209153041,
        0.0,
        -0.977883
      ],
      "scale": [
        0.309931755,
        0.309931755,
        0.309931755
      ],
      "translation": [
        0.499,
        -0.021,
        1.051
      ],
      "name": "decorator_building_barracks (3)"
    },
    {
      "mesh": 2,
      "rotation": [
        0.0,
        -0.390952468,
        0.0,
        -0.9204109
      ],
      "scale": [
        0.309931755,
        0.309931755,
        0.309931755
      ],
      "translation": [
        1.003,
        -0.021,
        0.841
      ],
      "name": "decorator_building_barracks (4)"
    },
    {
      "mesh": 5,
      "rotation": [
        0.0,
        0.869515,
        0.0,
        0.4939066
      ],
      "scale": [
        0.388164073,
        0.388164043,
        0.388164073
      ],
      "translation": [
        1.222,
        -0.222,
        0.327
      ],
      "name": "decorator_building_mountainMine (1)"
    },
    {
      "mesh": 2,
      "rotation": [
        0.0,
        0.0,
        0.0,
        -1.0
      ],
      "scale": [
        0.505974948,
        0.505974948,
        0.505974948
      ],
      "translation": [
        0.414820015,
        0.0,
        -0.6101
      ],
      "name": "decorator_building_barracks (5)"
    },
    {
      "mesh": 2,
      "rotation": [
        0.0,
        0.359803766,
        0.0,
        -0.933028042
      ],
      "scale": [
        0.5059749,
        0.505974948,
        0.5059749
      ],
      "translation": [
        -0.322,
        -0.061,
        -0.716
      ],
      "name": "decorator_building_barracks (6)"
    },
    {
      "mesh": 2,
      "rotation": [
        0.0,
        -0.046085,
        0.0,
        -0.998937547
      ],
      "scale": [
        0.298671931,
        0.298671931,
        0.298671931
      ],
      "translation": [
        0.304,
        0.004,
        -0.984
      ],
      "name": "decorator_building_barracks (7)"
    },
    {
      "mesh": 2,
      "rotation": [
        0.0,
        0.0,
        0.0,
        -1.0
      ],
      "scale": [
        0.52505,
        0.52505,
        0.52505
      ],
      "translation": [
        -0.055,
        -0.033,
        0.773
      ],
      "name": "decorator_building_barracks (8)"
    },
    {
      "mesh": 2,
      "rotation": [
        0.0,
        0.359803766,
        0.0,
        -0.933028042
      ],
      "scale": [
        0.5250499,
        0.52505,
        0.5250499
      ],
      "translation": [
        -0.748,
        -0.031,
        0.429
      ],
      "name": "decorator_building_barracks (9)"
    },
    {
      "children": [
        16,
        17
      ],
      "mesh": 2,
      "rotation": [
        0.0,
        -0.046085,
        0.0,
        -0.998937547
      ],
      "scale": [
        0.309931755,
        0.309931755,
        0.309931755
      ],
      "translation": [
        -0.17,
        -0.018,
        0.385
      ],
      "name": "decorator_building_barracks (10)"
    },
    {
      "mesh": 6,
      "rotation": [
        0.0,
        0.046085,
        0.0,
        -0.998937547
      ],
      "scale": [
        0.495883435,
        0.495883435,
        0.495883435
      ],
      "translation": [
        2.048034,
        -0.1137992,
        -1.33356071
      ],
      "name": "decorator_natural_pineForest"
    },
    {
      "mesh": 3,
      "rotation": [
        0.0,
        0.046085,
        0.0,
        -0.998937547
      ],
      "scale": [
        0.7427119,
        0.7427119,
        0.7427119
      ],
      "translation": [
        -1.34382534,
        0.0580773,
        -0.8857224
      ],
      "name": "decorator_natural_orchard"
    },
    {
      "mesh": 1,
      "rotation": [
        0.0,
        -0.9406061,
        0.0,
        0.33950004
      ],
      "scale": [
        0.02588384,
        0.02588384,
        0.02588384
      ],
      "translation": [
        0.54,
        -0.0310000181,
        0.452
      ],
      "name": "SF_Bld_Castle_Keep_03 (1)"
    },
    {
      "mesh": 1,
      "rotation": [
        0.0,
        -0.677046061,
        0.0,
        0.735940635
      ],
      "scale": [
        0.02588384,
        0.02588384,
        0.02588384
      ],
      "translation": [
        0.947,
        -0.0310000181,
        0.024
      ],
      "name": "SF_Bld_Castle_Keep_03 (2)"
    },
    {
      "mesh": 7,
      "rotation": [
        0.0,
        -0.08095874,
        0.0,
        -0.996717453
      ],
      "scale": [
        0.0119007723,
        0.0238015447,
        0.0119007723
      ],
      "translation": [
        0.67,
        0.0,
        -0.276
      ],
      "name": "SF_Bld_Castle_Keep_01"
    }
  ],
  "samplers": [
    {
      "magFilter": 9728,
      "minFilter": 9984
    },
    {}
  ],
  "scene": 0,
  "scenes": [
    {
      "nodes": [
        0
      ],
      "name": "Tile_City_Townhall"
    }
  ],
  "textures": [
    {
      "sampler": 0,
      "source": 0,
      "name": "palette1"
    },
    {
      "sampler": 1,
      "source": 1,
      "name": "Medieval_Texture"
    }
  ]
}