{
  "accessors": [
    {
      "bufferView": 0,
      "componentType": 5126,
      "count": 36,
      "type": "VEC3",
      "max": [
        0.86602497100830078,
        0.0,
        1.0
      ],
      "min": [
        -0.86602497100830078,
        -1.0,
        -1.0
      ]
    },
    {
      "bufferView": 1,
      "componentType": 5126,
      "count": 36,
      "type": "VEC3",
      "max": [
        1.0,
        1.0,
        0.866019070148468
      ],
      "min": [
        -1.0,
        -1.0,
        -0.866019070148468
      ]
    },
    {
      "bufferView": 2,
      "componentType": 5126,
      "count": 36,
      "type": "VEC4",
      "max": [
        1.0,
        0.0,
        0.0,
        1.0
      ],
      "min": [
        1.0,
        0.0,
        0.0,
        1.0
      ]
    },
    {
      "bufferView": 3,
      "componentType": 5126,
      "count": 36,
      "type": "VEC2",
      "max": [
        0.055900000035762787,
        0.076099991798400879
      ],
      "min": [
        0.055900000035762787,
        0.076099991798400879
      ]
    },
    {
      "bufferView": 4,
      "componentType": 5121,
      "count": 60,
      "type": "SCALAR",
      "max": [
        35.0
      ],
      "min": [
        0.0
      ]
    },
    {
      "bufferView": 5,
      "componentType": 5126,
      "count": 1276,
      "type": "VEC3",
      "max": [
        0.77131897211074829,
        1.2103259563446045,
        0.71150201559066772
      ],
      "min": [
        -0.75758099555969238,
        0.0,
        -0.58191698789596558
      ]
    },
    {
      "bufferView": 6,
      "componentType": 5126,
      "count": 1276,
      "type": "VEC3",
      "max": [
        0.979713499546051,
        1.0,
        0.99982315301895142
      ],
      "min": [
        -0.9768528938293457,
        -1.0,
        -0.98374277353286743
      ]
    },
    {
      "bufferView": 7,
      "componentType": 5126,
      "count": 1276,
      "type": "VEC4",
      "max": [
        1.0,
        0.0,
        0.0,
        1.0
      ],
      "min": [
        1.0,
        0.0,
        0.0,
        1.0
      ]
    },
    {
      "bufferView": 8,
      "componentType": 5126,
      "count": 1276,
      "type": "VEC2",
      "max": [
        0.375,
        0.375
      ],
      "min": [
        0.125,
        0.125
      ]
    },
    {
      "bufferView": 9,
      "componentType": 5123,
      "count": 1584,
      "type": "SCALAR",
      "max": [
        1275.0
      ],
      "min": [
        0.0
      ]
    }
  ],
  "asset": {
    "version": "2.0"
  },
  "buffers": [
    {
      "uri": "Tile_Grass_Woods_02_Fruit.bin",
      "byteLength": 66204
    }
  ],
  "bufferViews": [
    {
      "buffer": 0,
      "byteLength": 432
    },
    {
      "buffer": 0,
      "byteOffset": 432,
      "byteLength": 432
    },
    {
      "buffer": 0,
      "byteOffset": 864,
      "byteLength": 576
    },
    {
      "buffer": 0,
      "byteOffset": 1440,
      "byteLength": 288
    },
    {
      "buffer": 0,
      "byteOffset": 1728,
      "byteLength": 60
    },
    {
      "buffer": 0,
      "byteOffset": 1788,
      "byteLength": 15312
    },
    {
      "buffer": 0,
      "byteOffset": 17100,
      "byteLength": 15312
    },
    {
      "buffer": 0,
      "byteOffset": 32412,
      "byteLength": 20416
    },
    {
      "buffer": 0,
      "byteOffset": 52828,
      "byteLength": 10208
    },
    {
      "buffer": 0,
      "byteOffset": 63036,
      "byteLength": 3168
    }
  ],
  "images": [
    {
      "uri": "palette3.png",
      "name": "palette3"
    },
    {
      "uri": "palette1.png",
      "name": "palette1"
    }
  ],
  "materials": [
    {
      "pbrMetallicRoughness": {
        "baseColorTexture": {
          "index": 0
        },
        "metallicFactor": 0.0
      },
      "name": "palette3"
    },
    {
      "pbrMetallicRoughness": {
        "baseColorTexture": {
          "index": 1
        },
        "metallicFactor": 0.0
      },
      "name": "palette1"
    }
  ],
  "meshes": [
    {
      "primitives": [
        {
          "attributes": {
            "POSITION": 0,
            "NORMAL": 1,
            "TANGENT": 2,
            "TEXCOORD_0": 3
          },
          "indices": 4,
          "material": 0
        }
      ],
      "name": "Tile_Grass_Woods_02_Fruit"
    },
    {
      "primitives": [
        {
          "attributes": {
            "POSITION": 5,
            "NORMAL": 6,
            "TANGENT": 7,
            "TEXCOORD_0": 8
          },
          "indices": 9,
          "material": 1
        }
      ],
      "name": "decorator_natural_orchard"
    }
  ],
  "nodes": [
    {
      "children": [
        1
      ],
      "mesh": 0,
      "rotation": [
        0.0,
        0.0,
        0.0,
        -1.0
      ],
      "translation": [
        0.0,
        1.0,
        0.0
      ],
      "name": "Tile_Grass_Woods_02_Fruit"
    },
    {
      "mesh": 1,
      "rotation": [
        0.0,
        0.0,
        0.0,
        -1.0
      ],
      "name": "decorator_natural_orchard"
    }
  ],
  "samplers": [
    {
      "magFilter": 9728,
      "minFilter": 9984
    }
  ],
  "scene": 0,
  "scenes": [
    {
      "nodes": [
        0
      ],
      "name": "Tile_Grass_Woods_02_Fruit"
    }
  ],
  "textures": [
    {
      "sampler": 0,
      "source": 0,
      "name": "palette3"
    },
    {
      "sampler": 0,
      "source": 1,
      "name": "palette1"
    }
  ]
}